<svg width="171" height="512" viewBox="0 0 171 512" fill="none" xmlns="http://www.w3.org/2000/svg">
<path d="M101.3 0C111.2 3.4 114.8 10.6 114.5 20.8C114.1 39.9 115.5 41.2 134 45.9C140.1 47.5 146.2 49.4 152 51.7C163.7 56.3 170 65 170.4 77.6C170.6 82.9 170.4 88.3 170.5 93.6C170.5 97.4 169.3 100.4 165.6 102.1C161.5 103.9 162.7 107.3 164.4 109.5C173 120.4 171.7 132.3 160.6 140.8C158.9 142.1 157.1 143.4 155.4 144.7C145.3 152.5 144.9 167.6 155.5 174.7C167.1 182.4 170.8 192.6 170.7 206.1C170.3 290.1 170.4 374.1 170.6 458C170.6 476.1 164.5 491.2 149.7 501.5C142.8 506.3 134.2 508.5 126.3 511.9C99 511.9 71.6 511.9 44.3 511.9C34.4 509.5 25 505.9 17.3 498.8C7.29999 489.6 1.39999 478.5 0.299991 464.9C0.0999908 462.1 0.0999786 459.2 0.0999786 456.4C0.0999786 372.1 0.200003 287.8 3.0473e-06 203.5C3.0473e-06 191.4 4 182.5 14 175.6C26.1 167.2 25.9 152.5 14 143.9C6.3 138.4 0.200003 131.9 0.500003 122C0.600003 118.3 2.6 114.1 5 111C8.2 106.9 8.19999 104.8 4.29999 101.6C2.39999 100 0.599997 97.1 0.399997 94.7C-0.100003 88.1 -0.199997 81.3 0.500003 74.7C1.8 63 8.59998 55.2 19.6 51.3C27.6 48.5 35.8 46.3 44 44C52.6 41.6 56.2 37.2 56.3 28.3C56.3 25.8 56.5 23.3 56.3 20.8C55.5 10.5 59.5 3.4 69.4 0C80 0 90.6 0 101.3 0ZM9.29999 330.2C9.29999 373 9.19999 415.9 9.29999 458.7C9.29999 484.6 26.9 502.4 52.8 502.7C74.5 503 96.1 503 117.8 502.7C143.5 502.4 161.2 484.6 161.3 459.2C161.4 373 161.3 286.9 161.4 200.7C161.4 193.6 158.6 188.4 152.7 184.3C133.6 171.2 133.8 148.4 152.7 135C155.8 132.8 158.6 129.5 160.2 126C163.2 119.5 161 116.8 153.9 116.8C118.2 116.8 82.6 116.8 46.9 116.8C36.2 116.8 25.6 116.7 14.9 116.8C10.3 116.8 8.89998 118.6 9.59998 123.1C10.5 129 14.4 132.7 19.1 135.9C36.5 147.6 36.6 171.7 19.2 183.3C12.1 188.1 9.19999 194.1 9.29999 202.6C9.39999 245.2 9.29999 287.7 9.29999 330.2ZM161.3 93.5C161.3 88.5 161.4 84 161.3 79.6C161.1 69.4 156.8 63.1 146.9 59.8C138.7 57.1 130.3 54.9 122.1 52.4C111.8 49.2 105.7 41.2 105.3 30.7C105.2 29.2 105.2 27.8 105.1 26.3C91.7 26.3 78.7 26.3 65.7 26.3C64.2 44.6 59.8 49.6 41.9 54.2C35.5 55.8 29.1 57.9 22.9 60.1C15.8 62.6 10.7 67.4 9.9 75.1C9.3 81.1 9.79999 87.3 9.79999 93.6C60.1 93.5 110.4 93.5 161.3 93.5ZM16.9 103.2C15.5 108 18.6 107.7 21.5 107.7C49.3 107.7 77.1 107.7 104.9 107.7C119.9 107.7 134.9 107.7 149.8 107.7C154.1 107.7 154.1 107.6 153.6 103.3C108 103.2 62.5 103.2 16.9 103.2ZM104.5 16.1C104.8 15.5 105.2 15 105.5 14.4C103.3 12.8 101.3 9.8 99 9.7C89.8 9.2 80.4 9.2 71.2 9.8C69 9.9 67.1 13 65 14.7C65.3 15.2 65.6 15.6 65.9 16.1C78.8 16.1 91.7 16.1 104.5 16.1Z" fill="black"/>
<path d="M152.5 330.1C152.5 371.8 152.5 413.4 152.5 455.1C152.5 458.7 153.4 463.5 148.1 463.6C142.5 463.7 143.3 458.8 143.3 455C143.3 372.5 143.3 290 143.3 207.5C143.3 199.2 143.1 199.2 135.4 195.9C133.8 195.2 131.9 192.3 132.2 190.9C132.6 189.3 135.3 187.4 137.1 187.3C144.3 186.9 151.4 193.6 152.3 201.2C152.5 203.3 152.5 205.5 152.5 207.7C152.5 248.5 152.5 289.3 152.5 330.1Z" fill="black"/>
<path d="M152.5 82.5C152.1 85.6 153.9 90.8 148.1 91C142.2 91.2 143.3 86.2 143.3 82.5C143.4 77.4 141.5 74.2 136.2 73.3C133.1 72.8 131.2 71.1 131.8 67.8C132.5 64.3 135.3 63.7 138.4 64.2C147.1 65.5 152.4 72.3 152.5 82.5Z" fill="black"/>
</svg>
